<svg xmlns="http://www.w3.org/2000/svg" width="1200" height="630" viewBox="0 0 1200 630" fill="none"><rect width="1200" height="630" fill="#F7F8F3"/><circle cx="1050" cy="-10" r="280" fill="#E4F1E5"/><circle cx="110" cy="660" r="260" fill="#E5F0E7"/><path d="M0 536C220 450 380 588 600 505C820 422 980 560 1200 468V630H0V536Z" fill="#123D2D"/><rect x="100" y="110" width="92" height="92" rx="27" fill="#14784F"/><path d="m124 178 44-44M133 134h35v35" stroke="#D7FA73" stroke-width="13" stroke-linecap="round" stroke-linejoin="round"/><text x="222" y="176" fill="#10231C" font-family="Arial, sans-serif" font-size="52" font-weight="700" letter-spacing="-3">errand<tspan fill="#14784F">go</tspan></text><text x="100" y="316" fill="#10231C" font-family="Arial, sans-serif" font-size="64" font-weight="700">Good people.</text><text x="100" y="392" fill="#14784F" font-family="Arial, sans-serif" font-size="64" font-weight="700">Real help.</text><text x="100" y="455" fill="#6D7B72" font-family="Arial, sans-serif" font-size="25">Trusted local help for real-world tasks around Lagos.</text><text x="100" y="576" fill="#D7FA73" font-family="Arial, sans-serif" font-size="19" font-weight="700" letter-spacing="2">ERRANDS, HANDLED WITH CARE</text><circle cx="1004" cy="248" r="58" fill="#D7FA73"/><path d="M978 275 1031 222M987 222h44v44" stroke="#123D2D" stroke-width="11" stroke-linecap="round" stroke-linejoin="round"/></svg>
